# Blender v2.80 (sub 75) OBJ File: ''
# www.blender.org
mtllib net.mtl
o Icosphere
v -0.256680 -0.415331 -0.425628
v 0.672010 -0.415331 -0.123873
v -0.672010 0.415331 -0.123873
v 0.256680 0.415331 -0.425628
v 0.394995 -0.789998 0.077388
v -0.150872 -0.789998 -0.099977
v -0.639118 -0.488249 -0.099979
v 0.244125 -0.488250 -0.386959
v 0.883243 0.000000 0.077387
v -0.545874 0.000000 -0.386964
v -0.883243 0.000000 0.077387
v 0.545874 0.000000 -0.386964
v 0.000000 0.000000 -0.564329
v -0.244125 0.488250 -0.386959
v 0.639118 0.488249 -0.099979
v -0.394995 0.789998 0.077388
v 0.150872 0.789998 -0.099977
v 0.000000 -1.000000 0.107262
v -0.894426 -0.447216 0.107262
v -0.276388 -0.447220 -0.743388
v 0.723607 -0.447220 -0.418464
v -0.723607 0.447220 -0.418464
v 0.276388 0.447220 -0.743388
v 0.894426 0.447216 0.107262
v 0.000000 1.000000 0.107262
v -0.162456 -0.850654 0.607257
v 0.425323 -0.850654 0.416273
v 0.850648 -0.525736 0.107262
v 0.425323 -0.850654 -0.201750
v -0.525730 -0.850652 0.107262
v -0.688189 -0.525736 0.607259
v -0.162456 -0.850654 -0.392734
v -0.688189 -0.525736 -0.392735
v 0.262869 -0.525738 -0.701750
v 0.951058 0.000000 0.416274
v 0.951058 0.000000 -0.201751
v -0.951058 0.000000 0.416274
v -0.587786 0.000000 -0.701755
v -0.951058 0.000000 -0.201751
v 0.587786 0.000000 -0.701755
v 0.000000 0.000000 -0.892738
v 0.688189 0.525736 0.607259
v -0.850648 0.525736 0.107262
v -0.262869 0.525738 -0.701750
v 0.688189 0.525736 -0.392735
v 0.162456 0.850654 0.607257
v 0.525730 0.850652 0.107262
v -0.425323 0.850654 0.416273
v -0.425323 0.850654 -0.201750
v 0.162456 0.850654 -0.392734
v 0.789256 -0.487793 0.361317
v 0.785797 -0.491453 0.361317
v 0.790983 -0.483062 0.361317
v -0.462659 -0.789996 0.329153
v -0.499684 -0.767114 0.329153
v -0.804646 -0.443780 0.364366
v -0.821660 -0.418749 0.342572
v -0.554649 -0.717333 0.364366
v 0.883243 0.000000 0.509614
v 0.842462 -0.213525 0.519744
v 0.567739 -0.658034 0.519743
v 0.394995 -0.789998 0.509614
v -0.007081 -0.922186 0.342574
v 0.029994 -0.918163 0.342574
v 0.222253 -0.850654 0.482256
v -0.037074 -0.918163 0.364366
v -0.110509 -0.850654 0.590378
v -0.142144 -0.835138 0.622014
v -0.169413 -0.826018 0.628670
v -0.393551 -0.816896 0.364366
v -0.217076 -0.816897 0.607257
v -0.663042 -0.520941 0.628672
v -0.683395 -0.500630 0.622016
v -0.711421 -0.479273 0.590380
v -0.633570 -0.559493 0.607258
v -0.883243 0.000000 0.509614
v -0.860242 -0.181631 0.482255
v -0.834643 -0.383786 0.342572
v -0.789256 0.487793 0.361317
v -0.790983 0.483062 0.361317
v -0.842462 0.213525 0.519744
v 0.834643 0.383786 0.342572
v 0.860242 0.181631 0.482255
v 0.821660 0.418749 0.342572
v 0.499684 0.767114 0.329153
v 0.554648 0.717333 0.364366
v 0.804646 0.443780 0.364366
v 0.633570 0.559493 0.607258
v 0.663042 0.520941 0.628672
v 0.711421 0.479273 0.590380
v 0.683395 0.500630 0.622016
v -0.785797 0.491453 0.361317
v -0.394995 0.789998 0.509614
v -0.567739 0.658034 0.519743
v 0.462659 0.789996 0.329153
v -0.029994 0.918163 0.342574
v 0.007081 0.922186 0.342574
v 0.037074 0.918163 0.364366
v 0.393551 0.816896 0.364366
v -0.222253 0.850654 0.482256
v 0.110509 0.850654 0.590378
v 0.217076 0.816897 0.607257
v 0.142144 0.835138 0.622014
v 0.169413 0.826018 0.628670
vt 0.363636 0.157461
vt 0.318182 0.236191
vt 0.272727 0.157461
vt 0.545454 0.157461
vt 0.500000 0.236191
vt 0.454545 0.157461
vt 0.409090 0.236191
vt 0.590909 0.236191
vt 0.272727 0.314921
vt 0.227273 0.393651
vt 0.182301 0.315757
vt 0.182386 0.314921
vt 0.454545 0.314921
vt 0.409090 0.393651
vt 0.363636 0.314921
vt 0.545454 0.314921
vt 0.500000 0.393651
vt 0.365769 0.468687
vt 0.360184 0.466404
vt 0.318182 0.393651
vt 0.185270 0.466404
vt 0.163145 0.428083
vt 0.158812 0.393651
vt 0.157208 0.359220
vt 0.632911 0.308942
vt 0.632096 0.314921
vt 0.227273 0.236191
vt 0.182301 0.314085
vt 0.157208 0.270622
vt 0.158812 0.236191
vt 0.185270 0.163440
vt 0.186085 0.157461
vt 0.500000 0.078731
vt 0.409090 0.078731
vt 0.318182 0.078731
vt 0.230719 0.084701
vt 0.234166 0.078731
vt 0.818181 0.000000
vt 0.772726 0.078731
vt 0.804134 0.078730
vt 0.824681 0.043142
vt 0.829868 0.041021
vt 0.835054 0.043142
vt 0.855601 0.078730
vt 0.863635 0.078731
vt 0.090909 0.000000
vt 0.045454 0.078731
vt 0.136363 0.078731
vt 0.272727 0.000000
vt 0.227273 0.078731
vt 0.318182 0.078731
vt 0.454545 0.000000
vt 0.409090 0.078731
vt 0.500000 0.078731
vt 0.181818 0.157461
vt 0.090909 0.157461
vt 0.094926 0.164419
vt 0.136020 0.164419
vt 0.140450 0.167850
vt 0.141207 0.173403
vt 0.120660 0.208991
vt 0.136363 0.236191
vt 0.363636 0.157461
vt 0.272727 0.157461
vt 0.318182 0.236191
vt 0.545454 0.157461
vt 0.454545 0.157461
vt 0.500000 0.236191
vt 0.227273 0.236191
vt 0.409090 0.236191
vt 0.590909 0.236191
vt 0.272727 0.314921
vt 0.181818 0.314921
vt 0.227273 0.393651
vt 0.454545 0.314921
vt 0.363636 0.314921
vt 0.409090 0.393651
vt 0.636363 0.314921
vt 0.545454 0.314921
vt 0.590909 0.393651
vt 0.500000 0.393651
vt 0.545454 0.472382
vt 0.318182 0.393651
vt 0.363636 0.472382
vt 0.136363 0.393651
vt 0.181818 0.472382
vt 0.137886 0.314921
vt 0.137965 0.315698
vt 0.114661 0.356062
vt 0.954545 0.393651
vt 0.923137 0.393651
vt 0.902590 0.429240
vt 0.897403 0.431361
vt 0.892217 0.429240
vt 0.871670 0.393651
vt 0.863635 0.393651
vt 0.909090 0.472382
vt 0.946059 0.378954
vt 0.772726 0.393651
vt 0.681818 0.393651
vt 0.727272 0.472382
vt 0.768004 0.385472
vt 0.723842 0.385472
vt 0.713676 0.378954
vt 0.710475 0.373409
vt 0.709913 0.361347
vt 0.731994 0.323101
vt 0.727272 0.314921
vt 0.114661 0.273781
vt 0.137965 0.314144
vt 0.681818 0.236191
vt 0.723255 0.307963
vt 0.682161 0.307963
vt 0.677731 0.304532
vt 0.676974 0.298979
vt 0.697521 0.263391
vt 0.119393 0.236191
vt 0.085357 0.157461
vt 0.088738 0.161221
vt 0.636363 0.157461
vt 0.050177 0.086910
vt 0.094339 0.086910
vt 0.104505 0.093428
vt 0.107706 0.098973
vt 0.108268 0.111035
vt 0.086187 0.149282
vt 0.042679 0.083538
vt 0.590909 0.078731
vt 0.681818 0.078731
vt 0.636363 0.000000
vt 0.861465 0.082490
vt 0.866411 0.083538
vt 0.751024 0.116320
vt 0.781212 0.093428
vt 0.673002 0.378383
vt 0.639815 0.320900
vt 0.684064 0.320900
vt 0.692246 0.324344
vt 0.695886 0.328392
vt 0.696779 0.337200
vt 0.732824 0.314921
vt 0.729443 0.311161
vt 0.703520 0.198601
vt 0.680216 0.158238
vt 0.680295 0.157461
vt 0.457997 0.005978
vt 0.452412 0.003695
vt 0.723820 0.466404
vt 0.690633 0.408921
vt 0.738186 0.408921
vt 0.745368 0.414098
vt 0.747053 0.419275
vt 0.745945 0.428083
vt 0.976247 0.356062
vt 0.659369 0.078731
vt 0.590909 0.078731
vt 0.632911 0.005978
vt 0.655036 0.044299
vt 0.274860 0.003695
vt 0.236088 0.063461
vt 0.269275 0.005978
vt 0.659369 0.236191
vt 0.635880 0.158297
vt 0.660973 0.201760
vt 0.865806 0.389892
vt 0.635795 0.157461
vt 0.655036 0.270621
vt 0.094361 0.005978
vt 0.127548 0.063461
vt 0.079995 0.063461
vt 0.072813 0.058284
vt 0.071128 0.053107
vt 0.072236 0.044299
vt 0.163145 0.201761
vt 0.635880 0.156625
vt 0.632911 0.320900
vt 0.599724 0.378383
vt 0.587462 0.387681
vt 0.698788 0.236191
vt 0.584015 0.393651
vt 0.185270 0.151482
vt 0.218457 0.093999
vt 0.680216 0.156684
vt 0.703520 0.116320
vt 0.660973 0.113162
vt 0.860860 0.388844
vt 0.145179 0.093999
vt 0.178366 0.151482
vt 0.134117 0.151482
vt 0.125935 0.148038
vt 0.122295 0.143990
vt 0.121402 0.135182
vt 0.775502 0.388844
vt 0.582093 0.408921
vt 0.548906 0.466404
vt 0.543321 0.468687
vn 0.5746 0.3304 0.7488
vn -0.5346 0.3304 0.7779
vn 0.3066 0.1256 0.9435
vn -0.8026 0.1256 0.5831
vn 0.7002 -0.6617 0.2680
vn -0.0385 -0.6617 0.7488
vn -0.4089 -0.6617 0.6284
vn 0.1024 -0.9435 0.3151
vn 0.1876 -0.7947 0.5773
vn 0.4713 -0.6617 0.5831
vn 0.3313 -0.9435 0.0000
vn 0.6071 -0.7947 0.0000
vn -0.8897 -0.3304 0.3151
vn -0.7947 -0.1876 0.5773
vn -0.5746 -0.3304 0.7488
vn 0.0247 -0.3304 0.9435
vn 0.3035 -0.1876 0.9342
vn 0.5346 -0.3304 0.7779
vn 0.9050 -0.3304 0.2680
vn 0.9822 -0.1876 0.0000
vn -0.3066 -0.1256 0.9435
vn -0.3035 0.1876 0.9342
vn -0.0247 0.3304 0.9435
vn 0.8026 -0.1256 0.5831
vn 0.7947 0.1876 0.5773
vn 0.8897 0.3304 0.3151
vn -0.4713 0.6617 0.5831
vn -0.1876 0.7947 0.5773
vn 0.0385 0.6617 0.7488
vn 0.4089 0.6617 0.6284
vn 0.4911 0.7947 0.3568
vn -0.2680 -0.9435 0.1947
vn -0.2680 -0.9435 -0.1947
vn 0.1024 -0.9435 -0.3151
vn -0.5746 -0.3304 -0.7488
vn 0.5346 -0.3304 -0.7779
vn -0.9921 -0.1256 0.0000
vn -0.3066 -0.1256 -0.9435
vn 0.8026 -0.1256 -0.5831
vn -0.7002 0.6617 -0.2680
vn 0.0385 0.6617 -0.7488
vn 0.7240 0.6617 -0.1947
vn 0.2680 0.9435 -0.1947
vn 0.4911 0.7947 -0.3568
vn 0.4089 0.6617 -0.6284
vn -0.1024 0.9435 -0.3151
vn -0.1876 0.7947 -0.5773
vn -0.4713 0.6617 -0.5831
vn -0.3313 0.9435 0.0000
vn -0.6071 0.7947 0.0000
vn -0.7002 0.6617 0.2680
vn -0.1024 0.9435 0.3151
vn 0.2680 0.9435 0.1947
vn 0.7240 0.6617 0.1947
vn 0.8897 0.3304 -0.3151
vn 0.7947 0.1876 -0.5773
vn 0.5746 0.3304 -0.7488
vn -0.0247 0.3304 -0.9435
vn -0.3035 0.1876 -0.9342
vn -0.5346 0.3304 -0.7779
vn -0.9050 0.3304 -0.2680
vn -0.9822 0.1876 0.0000
vn -0.9050 0.3304 0.2680
vn 0.3066 0.1256 -0.9435
vn 0.3035 -0.1876 -0.9342
vn 0.0247 -0.3304 -0.9435
vn -0.8026 0.1256 -0.5831
vn -0.7947 -0.1876 -0.5773
vn -0.8897 -0.3304 -0.3151
vn 0.9921 0.1256 0.0000
vn 0.9050 -0.3304 -0.2680
vn 0.4713 -0.6617 -0.5831
vn 0.1876 -0.7947 -0.5773
vn -0.0385 -0.6617 -0.7488
vn -0.4089 -0.6617 -0.6284
vn -0.4911 -0.7947 -0.3568
vn -0.7240 -0.6617 -0.1947
vn -0.7240 -0.6617 0.1947
vn -0.4911 -0.7947 0.3568
vn 0.7002 -0.6617 -0.2680
usemtl None
s off
f 1/1/1 10/2/1 7/3/1
f 2/4/2 12/5/2 8/6/2
f 1/1/3 13/7/3 10/2/3
f 2/4/4 9/8/4 12/5/4
f 3/9/5 16/10/5 92/11/5 79/12/5
f 4/13/6 17/14/6 14/15/6
f 15/16/7 17/17/7 4/13/7
f 17/14/8 97/18/8 96/19/8 16/20/8
f 17/14/9 16/20/9 14/15/9
f 14/15/10 16/20/10 3/9/10
f 16/10/11 96/21/11 100/22/11 93/23/11
f 16/10/12 93/23/12 94/24/12 92/11/12
f 9/8/13 82/25/13 84/26/13 15/16/13
f 9/8/14 15/16/14 12/5/14
f 12/5/15 15/16/15 4/13/15
f 13/7/16 4/13/16 14/15/16
f 13/7/17 14/15/17 10/2/17
f 10/2/18 14/15/18 3/9/18
f 11/27/19 3/9/19 79/12/19 80/28/19
f 11/27/20 80/28/20 81/29/20 76/30/20
f 12/5/21 4/13/21 13/7/21
f 12/5/22 13/7/22 8/6/22
f 8/6/23 13/7/23 1/1/23
f 10/2/24 3/9/24 11/27/24
f 10/2/25 11/27/25 7/3/25
f 7/3/26 11/27/26 78/31/26 57/32/26
f 5/33/27 2/4/27 8/6/27
f 5/33/28 8/6/28 6/34/28
f 6/34/29 8/6/29 1/1/29
f 6/35/30 1/1/30 7/3/30
f 6/35/31 7/3/31 55/36/31 54/37/31
f 18/38/8 27/39/8 65/40/8 64/41/8 63/42/8 66/43/8 67/44/8 26/45/8
f 18/46/32 26/47/32 30/48/32
f 18/49/33 30/50/33 32/51/33
f 18/52/34 32/53/34 29/54/34
f 19/55/13 31/56/13 74/57/13 56/58/13 57/59/13 78/60/13 77/61/13 37/62/13
f 20/63/35 33/64/35 38/65/35
f 21/66/36 34/67/36 40/68/36
f 19/55/37 37/62/37 39/69/37
f 20/63/38 38/65/38 41/70/38
f 21/66/39 40/68/39 36/71/39
f 22/72/40 43/73/40 49/74/40
f 23/75/41 44/76/41 50/77/41
f 24/78/42 45/79/42 47/80/42
f 47/80/43 50/81/43 25/82/43
f 47/80/44 45/79/44 50/81/44
f 45/79/45 23/75/45 50/81/45
f 50/77/46 49/83/46 25/84/46
f 50/77/47 44/76/47 49/83/47
f 44/76/48 22/72/48 49/83/48
f 49/74/49 48/85/49 25/86/49
f 49/74/50 43/73/50 48/85/50
f 43/73/51 79/87/51 92/88/51 94/89/51 48/85/51
f 48/90/52 100/91/52 96/92/52 97/93/52 98/94/52 101/95/52 46/96/52 25/97/52
f 48/90/28 93/98/28 100/91/28
f 46/99/53 47/100/53 25/101/53
f 46/99/31 102/102/31 99/103/31 95/104/31 85/105/31 86/106/31 88/107/31 42/108/31 47/100/31
f 42/108/54 24/78/54 47/100/54
f 36/71/55 45/79/55 24/78/55
f 36/71/56 40/68/56 45/79/56
f 40/68/57 23/75/57 45/79/57
f 41/70/58 44/76/58 23/75/58
f 41/70/59 38/65/59 44/76/59
f 38/65/60 22/72/60 44/76/60
f 39/69/61 43/73/61 22/72/61
f 39/69/62 37/62/62 43/73/62
f 37/62/63 81/109/63 80/110/63 79/87/63 43/73/63
f 35/111/26 24/78/26 42/108/26 90/112/26 87/113/26 84/114/26 82/115/26 83/116/26
f 40/68/64 41/70/64 23/75/64
f 40/68/65 34/67/65 41/70/65
f 34/67/66 20/63/66 41/70/66
f 38/65/67 39/69/67 22/72/67
f 38/65/68 33/64/68 39/69/68
f 33/64/69 19/55/69 39/69/69
f 37/62/4 76/117/4 81/109/4
f 37/62/14 77/61/14 76/117/14
f 31/56/15 72/118/15 73/119/15
f 35/111/70 36/71/70 24/78/70
f 35/111/20 28/120/20 36/71/20
f 28/120/71 21/66/71 36/71/71
f 29/54/72 34/67/72 21/66/72
f 29/54/73 32/53/73 34/67/73
f 32/53/74 20/63/74 34/67/74
f 32/51/75 33/64/75 20/63/75
f 32/51/76 30/50/76 33/64/76
f 30/50/77 19/55/77 33/64/77
f 30/48/78 31/56/78 19/55/78
f 30/48/79 26/47/79 71/121/79 70/122/79 54/123/79 55/124/79 58/125/79 75/126/79 31/56/79
f 26/47/7 69/127/7 71/121/7
f 28/120/80 29/128/80 21/66/80
f 28/120/12 27/129/12 29/128/12
f 27/129/11 18/130/11 29/128/11
f 26/45/6 68/131/6 69/132/6
f 26/45/9 67/44/9 68/131/9
f 27/39/10 61/133/10 62/134/10
f 86/135/77 87/136/77 90/137/77 91/138/77 89/139/77 88/140/77
f 89/141/1 91/142/1 42/108/1
f 60/143/19 53/144/19 51/145/19 28/120/19 35/111/19
f 64/146/52 5/33/52 6/34/52 63/147/52
f 98/148/33 99/149/33 102/150/33 104/151/33 103/152/33 101/153/33
f 94/154/27 93/98/27 48/90/27
f 62/155/49 5/156/49 64/157/49 65/158/49
f 63/159/53 6/35/53 54/37/53 70/160/53 66/161/53
f 59/162/62 9/8/62 53/163/62 60/164/62
f 101/95/28 103/165/28 46/96/28
f 53/163/63 9/8/63 2/4/63 51/166/63
f 82/25/37 9/8/37 59/162/37 83/167/37
f 66/168/43 70/169/43 71/170/43 69/171/43 68/172/43 67/173/43
f 78/31/70 11/27/70 76/30/70 77/174/70
f 75/126/7 72/118/7 31/56/7
f 73/119/14 74/57/14 31/56/14
f 51/166/51 2/4/51 5/156/51 52/175/51
f 87/176/78 86/177/78 85/178/78 15/16/78 84/26/78
f 91/142/25 90/112/25 42/108/25
f 83/116/25 59/179/25 35/111/25
f 95/180/79 17/17/79 15/16/79 85/178/79
f 62/134/9 65/40/9 27/39/9
f 55/36/54 7/3/54 57/32/54 56/181/54 58/182/54
f 51/145/5 52/183/5 61/184/5 27/129/5 28/120/5
f 52/175/50 5/156/50 62/155/50 61/185/50
f 103/165/29 104/186/29 46/96/29
f 59/179/24 60/143/24 35/111/24
f 58/187/42 56/188/42 74/189/42 73/190/42 72/191/42 75/192/42
f 104/193/30 102/102/30 46/99/30
f 88/107/30 89/141/30 42/108/30
f 99/194/32 98/195/32 97/196/32 17/17/32 95/180/32
